<?xml version="1.0" standalone="no"?>
<!DOCTYPE svg PUBLIC "-//W3C//DTD SVG 20010904//EN"
 "http://www.w3.org/TR/2001/REC-SVG-20010904/DTD/svg10.dtd">
<svg version="1.0" xmlns="http://www.w3.org/2000/svg"
 width="626.000000pt" height="835.000000pt" viewBox="0 0 626.000000 835.000000"
 preserveAspectRatio="xMidYMid meet">
<metadata>
Created by potrace 1.13, written by Peter Selinger 2001-2015
</metadata>
<g transform="translate(0.000000,835.000000) scale(0.100000,-0.100000)"
fill="#000000" stroke="none">
<path d="M4560 8345 c0 -4 6 -18 14 -33 11 -22 12 -31 2 -44 -11 -15 -13 -15
-24 3 -21 33 -28 14 -31 -83 -1 -51 -7 -138 -12 -193 -5 -55 -14 -221 -19
-370 -15 -403 -10 -554 19 -547 8 2 9 -3 3 -15 -10 -18 -15 -41 -31 -148 -5
-33 -11 -152 -13 -265 l-3 -205 35 -6 c19 -4 33 -7 30 -8 -22 -6 -472 -41
-531 -41 -74 0 -77 -1 -88 -27 -6 -16 -12 -66 -14 -113 l-2 -85 95 -10 95 -11
-64 -7 c-35 -4 -101 -7 -147 -7 l-83 0 -12 -37 c-18 -61 -24 -253 -8 -264 8
-5 101 -9 206 -7 106 1 195 -1 198 -3 11 -12 -272 -31 -389 -27 -85 3 -129 1
-135 -6 -13 -17 -21 -60 -32 -165 -5 -53 -12 -110 -15 -127 -5 -29 -3 -33 23
-38 15 -3 160 -7 320 -8 161 -2 293 -6 293 -10 0 -5 -33 -9 -72 -9 -40 -1 -91
-3 -113 -5 -22 -2 -157 -5 -299 -8 -211 -3 -260 -6 -267 -18 -4 -8 -13 -46
-19 -83 -11 -71 -19 -90 -27 -67 -3 6 -11 12 -19 12 -8 0 -14 8 -14 18 0 31
37 226 49 255 16 40 21 72 27 167 6 101 39 228 74 290 26 46 83 192 95 245 4
17 22 55 41 86 19 31 34 62 34 68 0 15 59 111 87 142 41 45 2 43 -69 -4 -66
-43 -79 -51 -168 -98 -30 -16 -76 -42 -102 -57 -25 -15 -93 -53 -150 -86 -57
-32 -114 -66 -128 -75 -65 -45 -189 -98 -241 -104 -30 -4 -75 -17 -100 -30
-47 -24 -99 -34 -99 -19 0 10 -185 7 -240 -4 -19 -4 -39 -6 -45 -4 -27 7 -132
6 -142 -3 -8 -6 -23 -5 -41 1 -16 5 -41 8 -57 6 -16 -1 -35 2 -41 7 -17 14
-93 22 -107 12 -7 -5 -27 -10 -45 -11 -18 -2 -36 -3 -40 -4 -4 -1 -19 2 -33 6
-15 4 -44 3 -66 -3 -28 -8 -54 -8 -89 0 -27 6 -58 11 -69 12 -11 1 -27 6 -35
11 -8 6 -66 11 -129 14 -94 3 -119 7 -139 23 -14 10 -31 19 -38 19 -8 0 -14 5
-14 10 0 6 -6 10 -12 9 -23 -4 -52 13 -128 76 -41 34 -122 94 -180 133 -58 40
-112 77 -121 84 -10 6 -19 9 -21 7 -2 -2 -27 15 -55 39 -28 23 -55 42 -60 42
-5 0 -22 14 -38 30 -29 30 -51 40 -40 18 4 -7 -8 2 -25 21 -26 27 -31 30 -25
12 5 -17 2 -24 -13 -27 -14 -4 -18 -12 -14 -31 3 -18 1 -24 -7 -19 -7 5 -11
-1 -11 -16 0 -13 -5 -29 -11 -35 -16 -16 -22 -132 -9 -188 6 -27 13 -77 16
-110 5 -73 26 -150 59 -211 14 -26 25 -54 25 -63 0 -9 11 -38 23 -66 14 -29
27 -81 31 -124 7 -82 39 -227 62 -281 8 -19 16 -49 17 -65 2 -17 7 -36 11 -43
4 -7 1 -15 -8 -18 -11 -4 -13 -11 -7 -22 10 -18 -17 -102 -36 -115 -7 -4 -13
-15 -13 -22 0 -8 -4 -15 -10 -15 -5 0 -10 -7 -10 -15 0 -8 -4 -15 -10 -15 -5
0 -9 -3 -9 -7 4 -22 -3 -43 -17 -57 -8 -9 -16 -26 -18 -39 -1 -13 -6 -28 -10
-35 -4 -7 -5 -16 -1 -21 3 -5 1 -12 -3 -15 -5 -3 -9 -21 -10 -41 -1 -20 -5
-41 -9 -48 -3 -6 -7 -33 -6 -59 0 -36 -4 -48 -15 -48 -13 0 -13 -3 2 -19 14
-15 15 -26 7 -63 -12 -53 -15 -126 -8 -230 1 -26 5 -50 8 -53 4 -3 5 -19 3
-35 -2 -16 1 -32 6 -35 6 -3 10 -14 10 -23 0 -10 10 -28 23 -42 18 -20 23 -34
19 -63 -3 -25 0 -37 8 -37 10 0 10 -3 0 -15 -10 -12 -9 -15 4 -15 10 0 14 -5
11 -10 -3 -6 3 -24 15 -40 12 -17 17 -30 12 -30 -6 0 -5 -10 1 -25 7 -14 20
-25 30 -25 9 0 17 -8 18 -17 1 -10 3 -58 5 -108 l4 -90 -102 -60 c-201 -120
-263 -153 -270 -149 -5 3 -8 20 -8 39 0 19 -4 36 -9 40 -13 8 -34 -33 -28 -55
4 -14 -3 -19 -32 -24 -60 -10 -136 -7 -149 6 -7 7 -12 8 -12 3 0 -6 -49 -9
-120 -7 l-120 4 0 -121 c0 -77 4 -121 10 -121 6 0 13 7 16 15 7 16 34 21 34 6
0 -17 33 -21 50 -6 9 8 26 15 38 15 26 0 150 27 177 39 28 12 147 52 165 56 8
1 34 6 57 10 40 7 93 50 93 75 0 5 11 10 25 10 15 0 25 6 25 15 0 16 53 47 89
51 27 3 61 31 61 51 0 7 10 13 21 13 18 0 20 -2 8 -16 -10 -13 -10 -17 0 -24
10 -6 10 -9 1 -15 -9 -6 -9 -9 1 -16 12 -7 12 -12 1 -30 -12 -19 -12 -21 2
-16 11 4 19 0 22 -11 10 -29 39 -87 47 -93 14 -10 25 -66 16 -80 -5 -8 -6 -22
-3 -31 4 -14 1 -16 -13 -11 -15 6 -16 5 -3 -9 8 -9 20 -13 25 -10 6 2 4 -1 -2
-9 -18 -18 -16 -34 2 -19 8 7 15 8 15 2 0 -5 -7 -15 -15 -22 -8 -7 -15 -17
-15 -23 0 -5 9 -2 20 8 11 10 22 16 25 13 7 -7 -106 -118 -120 -118 -22 0 -25
-40 -4 -53 27 -17 24 -34 -8 -49 -40 -19 -36 -43 7 -43 19 0 41 3 48 8 6 5 12
6 12 2 0 -5 9 0 20 10 25 23 39 11 16 -14 -12 -13 -15 -27 -10 -45 5 -20 2
-26 -10 -26 -9 0 -16 -6 -16 -12 -1 -7 -12 -26 -25 -43 -20 -24 -25 -26 -25
-12 0 13 -6 18 -22 15 -19 -2 -22 -8 -20 -32 3 -26 1 -28 -22 -24 -14 3 -23 1
-20 -4 3 -4 -9 -7 -27 -6 -34 3 -45 -8 -29 -32 9 -13 12 -13 21 3 13 23 35 22
42 -2 7 -27 0 -31 -55 -31 -45 0 -63 12 -35 23 9 4 9 8 -2 16 -13 8 -11 13 10
31 14 13 18 20 8 17 -9 -3 -21 -1 -27 5 -6 6 -16 7 -24 2 -9 -6 -6 -10 12 -15
l25 -6 -30 -12 c-24 -10 -27 -14 -15 -23 12 -8 12 -9 -3 -4 -22 7 -70 -22 -63
-40 6 -16 -17 -25 -35 -13 -8 5 -18 9 -24 9 -5 0 -3 -5 5 -10 12 -8 9 -10 -12
-10 -31 0 -78 -19 -78 -32 0 -4 -9 -3 -20 4 -15 10 -22 10 -32 0 -6 -6 -29
-12 -50 -12 -22 0 -38 -5 -38 -12 0 -6 -3 -8 -6 -5 -4 4 -1 13 5 21 20 23 -6
29 -29 6 -21 -21 -50 -27 -50 -10 0 6 -8 5 -20 -2 -15 -10 -17 -14 -6 -18 10
-4 11 -12 5 -27 -7 -20 -12 -21 -34 -13 -14 5 -25 6 -25 1 0 -4 -10 -8 -23 -7
-15 1 -23 8 -25 24 -3 16 -10 22 -30 22 -24 0 -25 -1 -7 -13 13 -11 16 -21 11
-42 -7 -26 -10 -27 -46 -21 l-39 6 0 -279 c-1 -214 2 -281 12 -284 9 -4 9 -6
0 -6 -9 -1 -13 -23 -13 -76 0 -71 1 -75 23 -75 16 0 23 -6 23 -20 0 -24 -9
-25 -31 -4 -14 15 -15 0 -13 -168 l3 -183 28 2 c15 1 27 -2 27 -8 0 -5 -13 -9
-30 -9 -17 0 -30 -5 -30 -11 0 -6 9 -8 23 -3 l22 6 -22 -19 c-26 -23 -33 -97
-10 -106 9 -4 9 -6 0 -6 -10 -1 -13 -144 -13 -676 l0 -675 115 0 c103 0 115 2
115 18 1 16 1 16 14 0 12 -17 52 -18 585 -18 537 0 571 1 571 18 1 16 1 16 14
0 12 -16 62 -18 714 -18 620 0 702 2 702 15 0 9 -9 15 -25 15 -20 0 -25 5 -25
25 0 13 -7 28 -16 33 -13 7 -14 13 -5 29 6 12 17 23 26 27 8 3 15 15 15 26 0
11 6 20 13 20 18 0 67 -23 67 -32 0 -4 6 -5 13 -2 7 2 36 -7 65 -21 59 -28 94
-33 86 -11 -3 9 3 17 15 21 28 9 27 33 -1 38 -13 2 -4 5 20 6 23 0 42 6 42 12
0 6 6 9 13 6 45 -19 47 -19 47 -3 0 9 5 16 10 16 6 0 10 5 10 10 0 6 -8 5 -19
-2 -15 -9 -23 -9 -33 0 -11 9 -22 9 -47 -1 -25 -9 -34 -9 -40 1 -4 7 -21 16
-38 21 -25 7 -35 6 -47 -8 -9 -10 -16 -23 -16 -29 0 -15 -17 -16 -25 -2 -3 6
1 13 9 16 9 3 16 15 16 25 0 14 -7 19 -28 19 -15 0 -33 -5 -39 -11 -8 -8 -13
-8 -17 0 -4 6 0 11 8 11 9 0 15 6 14 13 -2 9 19 12 81 13 56 0 86 4 89 12 2 7
-3 15 -12 18 -9 3 -16 17 -16 29 0 13 -5 25 -11 27 -17 6 -1 46 23 59 17 9 24
8 33 -5 7 -9 22 -16 34 -16 22 0 30 -19 9 -21 -20 -2 -21 -2 -55 4 -25 5 -33
3 -33 -8 0 -8 9 -15 20 -15 22 0 27 -15 8 -23 -8 -4 -7 -6 4 -6 9 -1 24 -4 32
-7 12 -5 15 -2 10 11 -5 12 -3 16 6 13 9 -3 14 -25 16 -62 1 -32 5 -60 7 -62
11 -11 57 9 57 25 1 24 25 51 45 51 17 0 17 -1 2 -18 -22 -24 -21 -32 3 -32
14 0 21 9 25 38 3 20 10 44 15 54 10 17 -13 34 -31 22 -5 -3 -21 4 -35 15 -14
11 -32 17 -39 15 -8 -3 -24 2 -37 11 -22 16 -22 16 22 11 25 -3 54 -7 65 -8
34 -5 30 28 -5 35 -17 4 -30 13 -30 21 0 13 7 12 44 -4 29 -12 47 -15 54 -8 6
6 12 6 16 -1 4 -6 20 -11 37 -11 38 0 40 27 2 28 -60 1 -123 9 -130 15 -4 4
-1 13 5 19 15 15 16 48 2 48 -5 0 -10 -9 -10 -19 0 -11 -5 -23 -10 -26 -6 -3
-10 4 -10 16 0 20 -2 21 -12 7 -8 -9 -36 -18 -66 -21 -65 -7 -72 -12 -72 -43
0 -14 -4 -22 -10 -19 -16 10 -12 40 10 65 31 36 26 53 -14 48 -19 -2 -32 0
-30 4 3 4 -6 8 -20 8 -14 0 -26 4 -26 9 0 5 -8 11 -17 15 -10 3 -24 9 -30 12
-7 3 -13 -1 -13 -9 0 -8 -6 -20 -13 -26 -11 -8 -18 -6 -31 8 -12 13 -14 21 -6
26 6 4 8 15 5 26 -4 11 -2 19 4 19 6 0 14 1 19 2 4 1 24 5 46 9 38 7 38 7 32
-22 -3 -16 -2 -29 3 -29 12 0 22 27 15 43 -2 7 5 23 17 36 11 12 19 24 16 27
-2 2 -10 -2 -17 -11 -14 -16 -46 -20 -54 -6 -3 4 -16 6 -29 4 -17 -3 -26 1
-31 13 -3 9 -4 19 -1 22 3 3 5 0 5 -6 0 -7 8 -12 18 -12 13 0 14 2 3 9 -10 7
-8 12 9 24 l22 15 -21 7 c-23 7 -29 35 -8 35 6 1 -3 7 -21 15 -18 8 -31 19
-27 25 10 16 17 13 65 -30 31 -27 41 -43 33 -48 -7 -5 -9 -13 -3 -22 6 -10 12
-11 22 -3 7 6 24 13 38 15 l25 5 -25 11 -25 11 23 7 c13 4 22 14 22 25 0 11 5
19 10 19 6 0 10 5 10 10 0 14 -38 12 -43 -2 -6 -19 -18 -4 -21 28 -2 15 -8 30
-15 32 -14 5 -15 32 -1 32 6 0 10 6 10 14 0 18 26 27 56 20 15 -4 24 -13 24
-26 0 -17 5 -20 30 -14 34 6 38 -1 13 -19 -16 -12 -16 -14 1 -41 18 -26 19
-27 33 -8 11 15 11 21 1 29 -7 5 -14 21 -14 35 -1 19 4 26 20 28 11 1 47 5 79
8 31 3 57 10 57 14 0 13 -37 22 -60 15 -16 -5 -20 -2 -20 14 0 18 7 21 43 23
l42 1 -45 7 c-42 6 -43 7 -18 14 15 4 30 16 33 26 3 10 13 21 21 24 12 5 15 2
10 -10 -5 -12 -2 -15 10 -10 8 3 22 6 30 6 20 0 17 30 -3 31 -12 1 -10 4 7 9
14 4 18 9 10 10 -10 1 -9 4 5 9 22 9 67 -7 59 -20 -3 -5 7 -11 21 -15 36 -9
20 -25 -18 -17 l-32 6 19 -21 c19 -22 19 -22 -7 -22 -28 0 -36 -14 -14 -24 9
-5 9 -7 0 -12 -22 -10 -14 -24 9 -15 27 10 88 -8 88 -26 0 -17 -18 -17 -36 2
-18 17 -34 20 -34 5 0 -21 46 -39 84 -33 24 4 33 9 25 14 -10 6 -10 13 -2 32
7 14 9 28 5 32 -4 4 -7 12 -7 18 0 7 -10 16 -22 22 -14 6 -23 19 -23 32 0 24
33 48 55 39 7 -2 16 2 19 10 3 8 19 14 39 14 18 0 37 4 42 9 16 14 63 22 67
10 2 -5 20 -14 41 -19 30 -6 40 -5 44 6 5 13 33 20 33 9 0 -3 -11 -16 -23 -28
-13 -12 -22 -27 -20 -34 3 -7 -3 -9 -16 -6 -12 3 -21 1 -21 -6 0 -6 -12 -16
-26 -21 -25 -10 -25 -30 1 -30 7 0 15 -5 17 -11 6 -18 36 1 42 27 4 13 11 24
16 24 6 0 10 7 10 16 0 13 3 14 13 5 17 -14 27 -4 27 26 0 13 5 23 11 23 6 0
8 -8 4 -19 -9 -29 31 -61 74 -61 l36 1 -23 19 c-12 10 -28 20 -35 23 -8 2 -7
9 6 21 18 18 47 15 47 -4 0 -6 -4 -9 -8 -6 -4 2 -14 1 -22 -5 -13 -7 -13 -9 0
-10 8 -1 22 -1 31 0 23 2 32 -27 14 -45 -23 -24 -18 -35 10 -22 15 7 24 17 21
25 -3 7 -1 13 4 13 6 0 10 -7 10 -15 0 -16 9 -19 36 -8 16 6 16 7 -2 15 -13 6
-5 7 24 4 44 -4 50 -1 29 18 -7 6 -11 10 -9 9 2 0 17 3 34 8 29 8 30 7 14 -9
-12 -14 -13 -21 -4 -30 9 -9 7 -12 -10 -12 -12 0 -22 -4 -22 -10 0 -5 -8 -7
-17 -4 -15 5 -16 4 -3 -5 8 -6 31 -9 51 -5 21 3 40 1 43 -4 8 -13 -39 -36 -63
-29 -14 3 -21 0 -21 -9 0 -9 11 -14 30 -14 20 0 30 -5 30 -15 0 -19 11 -19 36
0 23 17 43 20 27 4 -13 -13 6 -39 28 -39 8 0 8 -4 -2 -16 -11 -14 -11 -18 4
-29 9 -6 14 -15 11 -18 -3 -3 3 -11 14 -18 18 -11 18 -14 6 -24 -14 -10 -21
-30 -23 -62 -1 -7 -13 -13 -28 -13 l-28 0 25 -20 c25 -19 25 -19 28 0 3 15 11
20 38 20 30 0 34 3 35 28 1 21 2 22 6 7 3 -11 10 -23 17 -28 8 -5 7 -10 -3
-16 -11 -7 -10 -11 7 -20 13 -7 18 -17 15 -30 -4 -15 1 -22 20 -26 14 -4 28
-13 31 -21 3 -8 12 -14 20 -14 7 0 29 -7 47 -15 l34 -16 -41 4 c-23 3 -64 0
-90 -5 -66 -14 -103 -12 -125 8 -11 10 -22 14 -26 11 -3 -4 0 -7 8 -7 12 0 12
-2 -1 -10 -13 -8 -13 -10 0 -14 8 -3 24 -6 34 -8 30 -5 21 -22 -16 -31 -50
-12 -79 -29 -74 -44 3 -7 -1 -13 -9 -13 -25 0 -17 -25 15 -43 34 -20 62 -13
33 8 -15 11 -16 16 -4 38 16 30 40 42 54 28 7 -7 5 -17 -8 -31 -15 -17 -16
-20 -3 -20 9 0 23 -10 31 -23 l16 -22 0 23 c1 12 7 22 15 22 16 0 38 -24 30
-33 -3 -3 -3 -10 1 -16 9 -15 48 6 42 22 -7 17 14 32 43 31 50 -2 52 -3 44
-26 -10 -33 -11 -33 -33 -7 -17 20 -22 22 -33 10 -10 -11 -10 -14 0 -18 6 -3
12 -14 12 -25 0 -19 -5 -20 -52 -16 -29 3 -47 3 -40 1 6 -3 12 -11 12 -19 0
-12 -9 -14 -43 -9 -35 5 -46 3 -61 -14 -15 -17 -16 -23 -6 -36 9 -11 9 -15 1
-15 -7 0 -9 -5 -6 -10 4 -6 12 -5 21 5 9 9 25 12 43 9 21 -5 34 0 51 18 22 23
23 23 18 1 -4 -16 0 -23 16 -27 32 -9 39 -7 33 8 -4 10 2 12 26 6 21 -4 32
-12 31 -22 -1 -9 9 -22 22 -29 13 -7 24 -16 24 -21 0 -12 -24 -10 -38 4 -21
21 -25 0 -4 -22 16 -17 26 -20 56 -15 22 5 36 3 36 -3 0 -6 -4 -12 -10 -14
-15 -5 0 -48 17 -48 10 0 14 -7 10 -19 -3 -14 0 -17 14 -14 11 3 22 9 25 14
10 17 36 9 65 -22 31 -34 38 -59 15 -59 -20 0 -30 -20 -17 -33 8 -8 3 -16 -17
-29 l-27 -18 53 0 c40 0 52 4 52 15 0 8 -4 15 -10 15 -5 0 -10 7 -10 15 0 9 9
15 25 15 22 0 24 -3 19 -30 l-6 -30 251 0 c216 0 251 2 251 15 0 8 3 15 8 15
8 0 7 98 -2 107 -3 3 1 17 8 32 7 14 19 54 26 88 7 35 19 68 27 75 9 7 10 13
3 18 -6 4 -3 14 10 28 11 11 20 27 20 35 0 16 44 67 58 67 4 0 18 11 30 25 18
21 31 25 74 25 62 0 71 5 92 45 14 26 16 27 16 8 0 -24 15 -39 25 -23 3 5 13
10 20 10 23 0 55 32 55 55 0 11 7 31 16 43 9 13 13 26 10 29 -3 4 -6 2 -6 -4
0 -6 -9 -13 -20 -16 -11 -3 -20 -1 -20 5 0 19 21 48 35 48 10 0 15 10 15 28 0
20 3 23 9 13 5 -8 6 -24 1 -37 -7 -18 -6 -22 5 -17 8 3 15 8 16 12 0 3 2 19 3
34 1 16 6 31 12 35 6 4 14 15 17 26 7 17 9 18 25 2 23 -20 42 -21 42 -1 0 9
-6 12 -15 9 -10 -4 -15 0 -15 15 0 12 6 21 14 21 7 0 21 11 30 25 13 20 25 25
59 25 29 0 51 7 70 23 l27 22 -20 33 c-14 23 -26 32 -36 28 -11 -4 -14 0 -12
12 1 9 -1 22 -5 29 -5 8 6 19 30 33 31 16 33 19 11 14 -39 -9 -93 12 -106 41
-7 14 -16 25 -22 25 -5 0 -10 7 -10 15 0 8 -6 15 -13 15 -7 0 -19 9 -27 19 -7
11 -17 18 -22 15 -15 -10 -30 7 -18 21 9 11 7 12 -7 9 -13 -4 -27 5 -43 25
-12 17 -27 31 -32 31 -10 0 -32 17 -56 44 -9 10 -27 30 -39 44 -13 14 -23 30
-23 37 0 17 -33 45 -53 45 -9 0 -17 7 -17 15 0 8 -5 15 -10 15 -6 0 -10 3 -9
8 1 4 -2 17 -6 30 -5 16 -13 21 -26 17 -13 -4 -19 -1 -19 9 0 15 -23 20 -92
19 -10 0 -18 4 -18 9 0 4 33 5 72 1 l73 -6 -28 25 c-19 18 -24 28 -15 31 10 4
10 8 -2 16 -8 6 -11 11 -6 11 4 0 -2 9 -15 20 -13 10 -20 19 -14 20 5 0 -1 7
-13 16 -13 9 -21 22 -18 29 2 7 -2 16 -10 19 -8 3 -14 12 -12 20 2 8 -16 28
-39 45 -24 17 -42 35 -40 39 2 7 -9 23 -47 64 -13 15 -15 22 -6 28 8 5 8 9 -3
13 -9 3 -19 25 -24 49 -6 31 -14 44 -28 47 -22 4 -44 29 -45 51 0 8 -12 26
-25 39 -14 13 -25 32 -25 42 0 10 -7 19 -15 19 -8 0 -15 6 -15 14 0 8 -7 17
-16 20 -8 3 -13 10 -10 15 3 4 -3 16 -14 26 -11 10 -20 24 -20 31 0 7 -6 14
-12 17 -10 4 -10 7 0 18 18 19 15 29 -10 29 -19 0 -20 2 -8 10 10 6 11 10 3
10 -7 0 -13 7 -13 15 0 8 -6 15 -12 15 -10 0 -10 2 0 9 18 11 -3 26 -48 35
-23 4 -43 17 -60 40 -26 35 -88 76 -115 76 -9 0 -14 4 -11 9 12 19 -7 41 -40
47 -24 4 -34 12 -34 24 0 10 6 20 13 23 6 2 -1 8 -18 12 -84 19 -100 35 -65
62 13 11 12 12 -5 13 -18 0 -18 2 5 19 24 19 24 20 6 40 -18 20 -18 21 8 32
33 15 15 30 -29 25 -16 -2 -22 -1 -12 1 9 2 17 9 17 15 0 6 8 17 18 24 15 12
14 13 -15 14 -18 0 -33 5 -33 10 0 6 7 10 15 10 8 0 15 5 15 10 0 9 -50 15
-90 11 -13 -2 -13 -1 0 8 8 6 33 11 55 12 22 0 33 3 25 6 -8 3 -26 14 -39 24
-15 12 -32 17 -47 13 -15 -4 -24 -2 -24 5 0 6 10 11 22 11 21 0 21 0 2 14 -10
8 -17 16 -14 18 3 2 23 12 45 23 47 23 48 37 5 46 -46 10 -47 16 -6 51 27 23
34 33 24 40 -8 5 -2 6 15 2 17 -4 27 -2 27 5 0 6 -4 11 -10 11 -24 0 -7 28 27
44 28 13 33 20 23 26 -12 7 -11 10 4 16 18 7 18 8 1 20 -23 17 -29 63 -9 71
12 4 14 18 8 72 -4 36 -7 85 -8 109 -1 31 -7 48 -20 58 -23 16 -62 19 -71 4
-8 -13 -52 -13 -60 0 -3 5 12 12 35 16 22 4 40 10 40 15 0 5 7 9 15 9 9 0 25
9 37 20 20 18 20 21 5 38 -10 10 -14 22 -10 26 4 4 1 12 -8 16 -11 6 -15 18
-11 35 4 21 0 25 -18 25 -18 0 -20 3 -11 14 9 10 9 16 1 21 -6 4 -10 14 -8 23
1 10 -4 27 -11 40 -9 17 -9 27 -2 36 6 8 9 20 6 28 -5 12 -95 77 -120 87 -34
12 -110 54 -119 65 -6 7 -36 23 -66 36 -30 12 -63 31 -73 41 -10 10 -30 22
-45 25 -15 4 -51 18 -81 30 -29 13 -68 24 -85 24 -17 1 -71 12 -121 26 -49 13
-105 29 -124 34 -18 4 -38 13 -43 18 -28 28 9 32 271 32 321 0 388 -5 402 -32
14 -27 -3 -45 -52 -53 -48 -8 -58 -21 -21 -29 36 -7 1199 -29 1217 -23 11 5
12 37 9 164 l-4 158 -152 -2 c-84 -1 -220 -4 -303 -5 -98 -2 -157 1 -170 8
-13 8 -115 12 -310 13 -188 1 -294 6 -302 13 -19 15 -16 41 6 55 13 8 22 34
31 93 7 47 9 85 4 90 -5 5 -163 10 -351 12 -254 2 -345 6 -354 15 -7 7 -10 15
-7 19 3 3 168 5 366 4 198 0 363 3 365 7 9 15 40 360 34 377 -4 9 -18 16 -32
16 -15 0 -24 4 -20 10 3 6 19 10 35 10 24 0 31 5 36 28 34 155 83 192 264 200
58 2 113 9 123 14 26 14 24 108 -4 133 l-20 19 22 17 c21 16 23 26 27 158 3
104 1 145 -8 156 -10 12 -10 18 0 30 7 8 14 59 17 119 6 100 5 104 -16 116
-13 6 -29 9 -37 6 -8 -3 -21 -3 -29 1 -14 5 -14 8 1 24 9 11 27 19 39 19 21 0
23 6 29 98 3 53 9 176 12 272 4 160 3 177 -14 196 -10 12 -27 24 -39 28 -27 9
-20 46 15 83 40 42 61 115 72 243 8 97 30 743 30 893 l0 47 -125 0 c-69 0
-125 -2 -125 -5z m-3508 -6873 c9 -1 20 -11 23 -22 5 -17 15 -20 65 -20 76 0
107 -14 116 -54 9 -40 24 -60 49 -63 50 -6 135 -28 135 -35 0 -4 8 -8 19 -8
10 0 24 -7 31 -15 7 -9 19 -14 26 -11 6 2 15 2 19 -2 3 -4 12 -7 18 -8 7 0 20
-2 30 -2 9 -1 17 -10 17 -21 0 -18 64 -58 83 -53 5 1 6 -2 3 -7 -4 -5 5 -26
19 -46 13 -20 27 -53 30 -74 4 -20 10 -46 16 -59 11 -29 12 -129 0 -136 -4 -3
-11 -19 -14 -36 -5 -21 -11 -28 -22 -24 -8 4 -17 -1 -21 -10 -3 -9 -10 -13
-15 -11 -4 3 -26 -3 -48 -14 -39 -20 -39 -20 -64 -1 -25 20 -25 20 -31 -3 -3
-12 -6 -36 -6 -54 0 -26 -3 -30 -20 -26 -11 3 -17 10 -13 16 4 6 -2 8 -15 5
-12 -4 -25 -2 -28 3 -9 15 -37 10 -31 -5 10 -26 -7 -26 -34 0 -18 17 -34 24
-45 20 -10 -4 -25 1 -37 11 -15 13 -21 15 -24 6 -6 -17 -51 -16 -69 1 -21 21
-17 38 7 34 18 -2 22 3 25 30 3 27 1 33 -13 30 -9 -2 -20 -14 -23 -27 -7 -30
-78 -90 -88 -75 -11 18 -82 28 -83 12 0 -7 -5 -3 -11 8 -6 14 -19 22 -35 22
-29 -1 -41 14 -48 62 -12 72 -16 82 -29 77 -7 -3 -19 -1 -26 3 -8 5 -21 5 -31
0 -41 -23 -59 127 -28 241 22 79 37 152 43 210 4 39 52 109 75 109 7 0 11 6 8
13 -4 12 27 15 95 9z m756 -224 c10 -10 15 -10 21 1 7 11 11 9 20 -7 14 -26
14 -52 1 -52 -5 0 -10 -9 -10 -20 0 -14 -5 -18 -17 -13 -17 5 -17 5 0 -8 9 -8
18 -29 20 -46 2 -30 5 -33 35 -33 17 0 32 -5 32 -11 0 -8 5 -8 15 1 12 10 16
8 25 -15 5 -14 10 -31 10 -37 0 -22 -34 -48 -63 -48 -24 0 -28 -3 -22 -17 4
-10 9 -33 12 -50 4 -26 2 -33 -10 -33 -8 0 -22 -3 -30 -6 -11 -4 -16 5 -22 32
-3 20 -12 46 -20 58 -20 32 -30 163 -14 182 10 13 10 17 -2 24 -11 8 -12 13
-2 28 9 16 8 23 -9 40 -20 20 -18 42 6 42 6 0 18 -6 24 -12z m970 -603 c23
-20 24 -25 13 -39 -12 -14 -9 -16 22 -16 29 0 35 -3 30 -16 -4 -10 1 -17 16
-21 11 -3 21 -10 21 -15 0 -5 6 -8 13 -7 24 3 38 -1 33 -10 -3 -5 -31 -12 -62
-16 -43 -5 -59 -3 -65 7 -7 10 -9 10 -9 1 0 -7 -10 -13 -22 -14 l-23 0 21 -9
c12 -5 25 -14 29 -20 11 -17 -46 0 -69 22 -19 18 -19 18 0 19 17 0 17 1 -3 11
-13 6 -23 17 -23 24 0 9 16 11 61 7 50 -5 61 -3 57 8 -2 8 -21 18 -41 23 -31
8 -37 14 -37 37 0 15 -4 31 -10 34 -5 3 -10 2 -10 -3 0 -15 -45 -30 -73 -25
-15 3 -27 9 -27 14 0 5 11 7 24 3 15 -4 25 -1 29 9 9 24 74 19 105 -8z m-906
-307 c0 -7 2 -17 2 -23 4 -23 28 -56 39 -52 7 2 20 -3 30 -11 13 -12 20 -13
25 -5 4 6 20 15 35 18 15 4 27 12 27 18 0 7 4 7 12 -1 17 -17 53 -15 68 3 14
17 50 20 50 5 0 -5 -11 -12 -24 -16 -16 -4 -23 -11 -19 -20 3 -8 0 -21 -7 -29
-6 -8 -9 -19 -5 -25 5 -8 -4 -9 -32 -3 -21 4 -77 8 -125 8 -69 0 -83 2 -66 11
20 11 20 12 -10 29 -26 16 -37 29 -60 78 -2 4 3 7 12 7 9 0 16 5 16 10 0 15
30 12 32 -2z"/>
<path d="M6120 7479 c-19 -6 -57 -15 -84 -20 -130 -27 -274 -193 -291 -335 -3
-27 -2 -108 3 -181 8 -115 13 -139 39 -195 18 -36 57 -91 92 -128 33 -35 61
-67 61 -71 0 -26 183 -34 228 -10 11 6 30 11 42 11 50 0 50 -4 50 474 0 415
-1 445 -17 450 -42 12 -90 14 -123 5z"/>
<path d="M6206 6495 c-21 -7 -66 -16 -100 -18 -34 -3 -74 -10 -89 -16 -16 -6
-43 -11 -61 -11 -41 0 -54 -13 -48 -50 4 -31 22 -42 22 -15 0 12 19 15 111 15
60 0 130 -5 155 -11 39 -10 44 -14 44 -40 0 -16 5 -29 10 -29 6 0 10 38 10 95
0 52 -3 95 -7 95 -5 -1 -26 -7 -47 -15z"/>
<path d="M6230 5944 c-9 -233 -34 -601 -50 -754 -5 -52 -21 -225 -35 -385 -13
-159 -29 -330 -34 -380 -6 -49 -15 -139 -21 -200 -24 -239 -45 -355 -66 -355
-8 0 -14 6 -14 14 0 10 -7 12 -21 9 -14 -4 -26 0 -33 9 -7 9 -31 21 -53 27
-23 6 -49 18 -57 26 -20 20 -75 15 -87 -7 -8 -14 -14 -16 -29 -8 -10 5 -27 10
-37 9 -15 0 -15 -2 3 -9 32 -13 44 -35 13 -25 -13 4 -50 10 -81 12 -32 3 -58
7 -58 9 0 21 51 94 65 94 3 0 16 11 29 25 13 14 31 25 40 25 9 0 16 7 16 15 0
8 9 15 20 15 11 0 20 4 20 9 0 5 20 12 44 15 49 8 52 13 62 86 10 74 3 79
-118 73 -62 -2 -113 -10 -130 -19 -16 -8 -37 -12 -48 -9 -11 3 -22 0 -27 -8
-4 -8 -27 -24 -50 -35 -22 -12 -43 -25 -45 -30 -1 -4 -17 -18 -35 -30 -17 -12
-43 -42 -57 -66 -21 -36 -25 -53 -21 -98 2 -30 14 -74 26 -97 16 -31 19 -45
10 -54 -8 -8 -6 -16 10 -33 l20 -21 -24 4 c-13 3 -40 0 -61 -5 -29 -8 -36 -8
-36 3 0 8 -6 12 -14 9 -8 -3 -17 -1 -21 5 -13 21 -25 10 -25 -22 0 -26 6 -36
25 -45 14 -6 25 -17 25 -24 0 -10 2 -10 8 -1 6 10 15 9 37 -3 27 -14 146 -24
330 -28 60 -1 69 12 25 35 -17 10 -35 20 -38 24 -13 12 24 25 75 25 29 0 72 5
96 12 30 8 56 8 83 2 45 -11 77 -7 68 8 -12 19 40 -3 78 -33 20 -16 48 -34 62
-40 14 -7 26 -15 26 -19 0 -4 21 -11 48 -15 26 -3 57 -9 70 -12 l22 -5 0 1130
c0 992 -2 1131 -15 1142 -8 7 -15 9 -15 4z m-591 -1748 c-2 -2 -24 -16 -49
-30 -42 -24 -43 -26 -17 -26 33 0 27 -19 -6 -21 -17 -1 -18 -2 -4 -6 23 -6 22
-33 -2 -33 -12 0 -21 -10 -26 -27 -4 -19 -9 -23 -15 -14 -4 8 -12 11 -18 7
-10 -6 -27 10 -27 27 0 8 -15 10 -15 2 0 -3 0 -13 0 -23 0 -10 14 -26 30 -35
25 -15 30 -24 30 -57 0 -56 8 -72 30 -60 15 8 20 6 25 -10 3 -11 12 -19 18
-17 7 1 13 -12 15 -32 l3 -34 -40 6 c-44 6 -130 55 -131 75 0 6 -4 12 -10 12
-5 0 -12 11 -16 25 -3 14 -10 25 -15 25 -14 0 -11 87 5 124 16 39 101 104 136
104 28 0 70 9 78 17 3 3 10 5 15 5 6 0 8 -2 6 -4z"/>
<path d="M5038 3743 c-3 -24 1 -43 9 -52 25 -24 -8 -45 -76 -47 -67 -3 -122
-23 -63 -24 28 0 32 -3 27 -19 -4 -15 1 -20 27 -25 24 -5 29 -9 20 -18 -8 -8
-17 -7 -36 6 -33 21 -70 22 -62 1 3 -8 2 -15 -3 -15 -8 0 -26 -33 -35 -65 -5
-17 2 -25 38 -42 24 -12 53 -19 64 -16 26 6 43 -23 31 -54 -7 -19 -16 -23 -53
-23 -28 0 -46 -5 -49 -14 -9 -23 4 -56 22 -57 49 -4 141 5 176 16 22 7 85 16
140 19 119 8 417 9 466 1 38 -5 232 -30 349 -45 41 -5 104 -14 140 -20 94 -14
90 -16 90 39 l0 48 -47 7 c-32 4 -49 2 -54 -6 -6 -9 -13 -8 -27 6 -12 10 -43
20 -76 23 -31 3 -56 9 -56 14 0 4 -36 7 -79 6 -61 -1 -88 3 -117 18 -22 11
-40 23 -42 28 -2 4 -11 7 -19 7 -9 0 -21 7 -28 16 -6 9 -28 18 -47 19 -43 3
-58 11 -58 32 0 11 6 14 26 9 17 -5 23 -3 19 4 -3 5 -13 10 -21 10 -8 0 -14 4
-14 10 0 5 -21 30 -46 55 -50 48 -84 58 -84 25 0 -44 -67 -52 -136 -15 -37 20
-55 23 -87 18 -28 -4 -38 -3 -33 5 4 6 -3 12 -16 14 -13 2 -27 13 -33 26 -5
12 -18 22 -28 22 -14 0 -16 5 -11 25 5 19 2 26 -12 30 -11 4 -32 13 -47 21
-41 20 -44 18 -49 -23z"/>
<path d="M4133 457 c-17 -7 -35 -15 -39 -19 -4 -5 -16 -8 -26 -8 -10 0 -18 -4
-18 -10 0 -5 -9 -10 -19 -10 -20 0 -37 -32 -27 -49 5 -8 -28 -24 -45 -22 -4 0
-15 -9 -25 -20 -18 -20 -18 -21 2 -37 27 -22 38 -52 19 -52 -7 0 -16 4 -20 10
-3 5 -12 7 -20 3 -9 -3 -21 0 -28 6 -10 8 -19 7 -32 -3 -18 -13 -18 -14 -1
-31 14 -14 15 -20 4 -26 -8 -5 -17 -3 -23 5 -7 9 -21 12 -38 9 -19 -4 -29 -1
-33 11 -7 18 -39 22 -49 6 -3 -6 2 -13 12 -16 45 -14 57 -23 24 -17 -29 5 -33
4 -28 -10 5 -14 1 -16 -25 -13 -17 1 -35 10 -40 20 -5 9 -20 16 -33 16 -14 0
-25 4 -25 10 0 5 10 9 21 7 12 -1 24 4 26 11 3 8 -7 12 -31 12 -25 0 -40 6
-48 20 -7 11 -22 20 -33 20 -17 0 -18 -2 -5 -11 11 -8 12 -12 3 -16 -17 -6
-16 -42 1 -49 30 -12 -35 -94 -75 -94 -18 0 -19 -3 -9 -15 14 -17 5 -36 -15
-28 -29 10 -15 -15 14 -27 16 -6 32 -18 35 -26 8 -20 86 -19 86 1 0 8 -4 15
-10 15 -5 0 -10 7 -10 15 0 8 9 15 20 15 16 0 20 -7 20 -30 0 -22 5 -30 17
-30 13 0 14 3 5 12 -7 7 -12 27 -12 45 0 31 3 33 41 39 28 5 36 10 27 15 -11
7 -11 11 1 18 9 6 21 5 32 -2 16 -10 16 -13 4 -27 -18 -20 -19 -30 -4 -30 18
0 55 -34 53 -50 0 -8 1 -10 3 -2 3 8 16 10 42 6 24 -4 41 -2 45 5 7 10 -2 15
-72 42 -15 6 -20 13 -15 22 4 6 6 22 5 34 -3 17 3 24 22 29 15 3 36 4 47 1 13
-4 28 2 41 15 18 18 22 19 29 6 11 -19 56 -12 83 14 15 13 17 21 9 29 -9 9 -8
17 0 32 9 15 9 21 0 24 -18 7 -16 23 3 23 12 0 15 -7 12 -30 -3 -17 -3 -30 0
-30 8 0 67 35 70 43 2 4 10 7 18 7 8 0 14 4 14 9 0 6 -12 9 -27 8 -22 -2 -29
3 -31 21 -2 12 1 23 7 23 6 1 16 3 21 4 6 1 22 3 36 4 22 1 25 3 14 16 -10 12
-10 15 1 15 10 1 9 4 -4 14 -16 12 -15 14 13 19 21 5 30 12 30 27 0 11 -1 20
-2 19 -2 0 -17 -6 -35 -12z"/>
<path d="M3093 133 c-4 -10 -12 -22 -20 -26 -8 -5 -11 -17 -7 -33 5 -17 2 -24
-9 -24 -8 0 -17 5 -19 11 -2 7 -13 9 -26 4 -19 -5 -21 -9 -11 -21 6 -8 18 -14
25 -14 8 0 14 -7 14 -15 0 -21 85 -21 94 0 3 8 10 15 16 15 5 0 10 -7 10 -15
0 -21 28 -19 33 2 4 17 5 17 6 1 1 -14 9 -18 39 -17 30 2 32 3 10 6 -16 2 -28
10 -28 18 0 19 -33 27 -64 15 -15 -5 -35 -10 -44 -10 -15 0 -15 2 -2 10 13 9
13 12 -3 24 -14 11 -15 16 -6 22 7 4 14 3 16 -2 2 -5 27 -8 55 -8 40 1 54 5
56 18 4 16 -9 20 -60 16 -18 -1 -31 6 -40 19 -16 26 -27 27 -35 4z"/>
</g>
</svg>
